<mxfile modified="2020-09-24T11:16:08.063Z" host="app.diagrams.net" agent="5.0 (Windows NT 10.0; Win64; x64) AppleWebKit/537.36 (KHTML, like Gecko) Chrome/85.0.4183.102 Safari/537.36" etag="OL0GbhTkpBD3-ypx7fCb" version="13.7.5" type="github">
  <diagram id="WI9T0HZ2pTsCkuznbFz-" name="Page-1">
    <mxGraphModel dx="1422" dy="723" grid="1" gridSize="10" guides="1" tooltips="1" connect="1" arrows="1" fold="1" page="1" pageScale="1" pageWidth="1169" pageHeight="827" math="0" shadow="0">
      <root>
        <mxCell id="0" />
        <mxCell id="1" parent="0" />
        <mxCell id="sXs9M7bIU0b1kzFrnqTN-10" value="" style="edgeStyle=orthogonalEdgeStyle;rounded=0;orthogonalLoop=1;jettySize=auto;html=1;" edge="1" parent="1" source="sXs9M7bIU0b1kzFrnqTN-2" target="sXs9M7bIU0b1kzFrnqTN-4">
          <mxGeometry relative="1" as="geometry" />
        </mxCell>
        <mxCell id="sXs9M7bIU0b1kzFrnqTN-2" value="&lt;b&gt;GENERATE CERTIFICATES&lt;/b&gt;" style="shape=process;whiteSpace=wrap;html=1;backgroundOutline=1;align=center;" vertex="1" parent="1">
          <mxGeometry x="40" y="80" width="260" height="50" as="geometry" />
        </mxCell>
        <mxCell id="sXs9M7bIU0b1kzFrnqTN-11" style="edgeStyle=orthogonalEdgeStyle;rounded=0;orthogonalLoop=1;jettySize=auto;html=1;exitX=0.5;exitY=1;exitDx=0;exitDy=0;entryX=0.5;entryY=0;entryDx=0;entryDy=0;" edge="1" parent="1" source="sXs9M7bIU0b1kzFrnqTN-4" target="sXs9M7bIU0b1kzFrnqTN-5">
          <mxGeometry relative="1" as="geometry" />
        </mxCell>
        <mxCell id="sXs9M7bIU0b1kzFrnqTN-4" value="CONFIG FLANNEL NETWORK" style="shape=process;whiteSpace=wrap;html=1;backgroundOutline=1;align=left;" vertex="1" parent="1">
          <mxGeometry x="40" y="180" width="260" height="50" as="geometry" />
        </mxCell>
        <mxCell id="sXs9M7bIU0b1kzFrnqTN-12" value="" style="edgeStyle=orthogonalEdgeStyle;rounded=0;orthogonalLoop=1;jettySize=auto;html=1;" edge="1" parent="1" source="sXs9M7bIU0b1kzFrnqTN-5" target="sXs9M7bIU0b1kzFrnqTN-6">
          <mxGeometry relative="1" as="geometry" />
        </mxCell>
        <mxCell id="sXs9M7bIU0b1kzFrnqTN-5" value="CONFIGURE THE MASTER NODE" style="shape=process;whiteSpace=wrap;html=1;backgroundOutline=1;align=left;" vertex="1" parent="1">
          <mxGeometry x="40" y="270" width="260" height="50" as="geometry" />
        </mxCell>
        <mxCell id="sXs9M7bIU0b1kzFrnqTN-13" value="" style="edgeStyle=orthogonalEdgeStyle;rounded=0;orthogonalLoop=1;jettySize=auto;html=1;" edge="1" parent="1" source="sXs9M7bIU0b1kzFrnqTN-6" target="sXs9M7bIU0b1kzFrnqTN-7">
          <mxGeometry relative="1" as="geometry" />
        </mxCell>
        <mxCell id="sXs9M7bIU0b1kzFrnqTN-6" value="START THE MASTER KUBELET" style="shape=process;whiteSpace=wrap;html=1;backgroundOutline=1;align=left;" vertex="1" parent="1">
          <mxGeometry x="40" y="364" width="260" height="50" as="geometry" />
        </mxCell>
        <mxCell id="sXs9M7bIU0b1kzFrnqTN-14" value="" style="edgeStyle=orthogonalEdgeStyle;rounded=0;orthogonalLoop=1;jettySize=auto;html=1;" edge="1" parent="1" source="sXs9M7bIU0b1kzFrnqTN-7" target="sXs9M7bIU0b1kzFrnqTN-8">
          <mxGeometry relative="1" as="geometry" />
        </mxCell>
        <mxCell id="sXs9M7bIU0b1kzFrnqTN-7" value="DOWNLOAD &amp;amp; INSTALL KUBECTL" style="shape=process;whiteSpace=wrap;html=1;backgroundOutline=1;align=left;" vertex="1" parent="1">
          <mxGeometry x="40" y="460" width="260" height="50" as="geometry" />
        </mxCell>
        <mxCell id="sXs9M7bIU0b1kzFrnqTN-8" value="CONFIG THE WORKERS NODES" style="shape=process;whiteSpace=wrap;html=1;backgroundOutline=1;align=left;" vertex="1" parent="1">
          <mxGeometry x="40" y="560" width="260" height="50" as="geometry" />
        </mxCell>
        <mxCell id="sXs9M7bIU0b1kzFrnqTN-15" value="" style="html=1;dashed=0;whitespace=wrap;fillColor=#2875E2;strokeColor=#ffffff;points=[[0.005,0.63,0],[0.1,0.2,0],[0.9,0.2,0],[0.5,0,0],[0.995,0.63,0],[0.72,0.99,0],[0.5,1,0],[0.28,0.99,0]];shape=mxgraph.kubernetes.icon;prIcon=node" vertex="1" parent="1">
          <mxGeometry x="310" y="270" width="50" height="48" as="geometry" />
        </mxCell>
        <mxCell id="sXs9M7bIU0b1kzFrnqTN-16" value="" style="html=1;dashed=0;whitespace=wrap;fillColor=#2875E2;strokeColor=#ffffff;points=[[0.005,0.63,0],[0.1,0.2,0],[0.9,0.2,0],[0.5,0,0],[0.995,0.63,0],[0.72,0.99,0],[0.5,1,0],[0.28,0.99,0]];shape=mxgraph.kubernetes.icon;prIcon=kubelet" vertex="1" parent="1">
          <mxGeometry x="310" y="364" width="50" height="48" as="geometry" />
        </mxCell>
        <mxCell id="sXs9M7bIU0b1kzFrnqTN-17" value="" style="html=1;dashed=0;whitespace=wrap;fillColor=#2875E2;strokeColor=#ffffff;points=[[0.005,0.63,0],[0.1,0.2,0],[0.9,0.2,0],[0.5,0,0],[0.995,0.63,0],[0.72,0.99,0],[0.5,1,0],[0.28,0.99,0]];shape=mxgraph.kubernetes.icon;prIcon=node" vertex="1" parent="1">
          <mxGeometry x="310" y="462" width="50" height="48" as="geometry" />
        </mxCell>
        <mxCell id="sXs9M7bIU0b1kzFrnqTN-20" value="" style="html=1;dashed=0;whitespace=wrap;fillColor=#2875E2;strokeColor=#ffffff;points=[[0.005,0.63,0],[0.1,0.2,0],[0.9,0.2,0],[0.5,0,0],[0.995,0.63,0],[0.72,0.99,0],[0.5,1,0],[0.28,0.99,0]];shape=mxgraph.kubernetes.icon;prIcon=netpol" vertex="1" parent="1">
          <mxGeometry x="310" y="82" width="50" height="48" as="geometry" />
        </mxCell>
        <mxCell id="sXs9M7bIU0b1kzFrnqTN-22" value="" style="html=1;dashed=0;whitespace=wrap;fillColor=#2875E2;strokeColor=#ffffff;points=[[0.005,0.63,0],[0.1,0.2,0],[0.9,0.2,0],[0.5,0,0],[0.995,0.63,0],[0.72,0.99,0],[0.5,1,0],[0.28,0.99,0]];shape=mxgraph.kubernetes.icon;prIcon=svc" vertex="1" parent="1">
          <mxGeometry x="310" y="182" width="50" height="48" as="geometry" />
        </mxCell>
        <mxCell id="sXs9M7bIU0b1kzFrnqTN-23" value="" style="html=1;dashed=0;whitespace=wrap;fillColor=#2875E2;strokeColor=#ffffff;points=[[0.005,0.63,0],[0.1,0.2,0],[0.9,0.2,0],[0.5,0,0],[0.995,0.63,0],[0.72,0.99,0],[0.5,1,0],[0.28,0.99,0]];shape=mxgraph.kubernetes.icon;prIcon=pod" vertex="1" parent="1">
          <mxGeometry x="310" y="550" width="50" height="48" as="geometry" />
        </mxCell>
      </root>
    </mxGraphModel>
  </diagram>
</mxfile>
